<?xml version="1.0" encoding="iso-8859-1"?>
<!-- Generator: Adobe Illustrator 19.0.0, SVG Export Plug-In . SVG Version: 6.00 Build 0)  -->
<svg version="1.1" id="Capa_1" xmlns="http://www.w3.org/2000/svg" xmlns:xlink="http://www.w3.org/1999/xlink" x="0px" y="0px"
	 viewBox="0 0 511.999 511.999" style="enable-background:new 0 0 511.999 511.999;" xml:space="preserve">
<path style="fill:#159CE4;" d="M496.732,412.024h-0.204c-3.906,0-7.664-1.497-10.499-4.184L318.556,249.18
	c-3.286-3.113-5.022-7.526-4.737-12.044s2.562-8.677,6.213-11.353L487.71,102.928c4.641-3.399,10.796-3.901,15.926-1.302
	c5.131,2.601,8.363,7.865,8.363,13.617v281.514C511.999,405.188,505.164,412.024,496.732,412.024z"/>
<path style="fill:#54CBFF;" d="M15.264,412.024c-2.036,0-4.086-0.407-6.029-1.243c-5.603-2.41-9.234-7.924-9.234-14.024V115.243
	c0-5.751,3.232-11.015,8.363-13.617c5.131-2.6,11.287-2.099,15.926,1.302l167.565,122.773c3.652,2.676,5.928,6.834,6.213,11.353
	s-1.45,8.931-4.737,12.044L25.767,407.84C22.874,410.579,19.097,412.024,15.264,412.024z"/>
<path style="fill:#18A7FC;" d="M496.529,412.024H15.267c-6.25,0-11.869-3.81-14.183-9.616c-2.313-5.806-0.854-12.435,3.683-16.734
	l167.565-158.741c5.355-5.074,13.571-5.592,19.522-1.232L256,272.696l64.033-46.914c5.951-4.359,14.167-3.841,19.523,1.233
	l167.474,158.66c4.537,4.298,5.996,10.928,3.682,16.734C508.397,408.213,502.778,412.024,496.529,412.024z"/>
<path style="fill:#BEE8FF;" d="M256,306.888c-3.168,0-6.337-0.984-9.023-2.952L6.245,127.558c-5.326-3.902-7.54-10.786-5.487-17.062
	s7.907-10.52,14.509-10.52h481.465c6.602,0,12.456,4.244,14.509,10.52c2.053,6.276-0.161,13.159-5.487,17.061L265.022,303.936
	C262.336,305.904,259.168,306.888,256,306.888z"/>
<path style="fill:#0074F0;" d="M339.554,227.015c-5.355-5.074-13.571-5.592-19.523-1.233l-64.033,46.913v139.327h240.529
	c6.25,0,11.868-3.81,14.183-9.615c2.313-5.806,0.854-12.436-3.682-16.734L339.554,227.015z"/>
<path style="fill:#54CBFF;" d="M496.732,99.976H256v206.912c3.168,0,6.337-0.984,9.023-2.952l240.732-176.379
	c5.326-3.902,7.54-10.786,5.487-17.061C509.189,104.22,503.335,99.976,496.732,99.976z"/>
<g>
</g>
<g>
</g>
<g>
</g>
<g>
</g>
<g>
</g>
<g>
</g>
<g>
</g>
<g>
</g>
<g>
</g>
<g>
</g>
<g>
</g>
<g>
</g>
<g>
</g>
<g>
</g>
<g>
</g>
</svg>
