<svg id="Capa_1" enable-background="new 0 0 512.03 512.03" height="512" viewBox="0 0 512.03 512.03" width="512" xmlns="http://www.w3.org/2000/svg"><g><g><path d="m376.925 414.673c-32.2 23.48-71.87 37.33-114.77 37.33h-12.28c-43.35 0-83.4-14.14-115.77-38.07l5.86-100.79c9.22-50.5 63.693-95.626 114.503-95.626 25.4 0 55.286 15.652 73.686 31.132 18.4 15.47 31.698 39.244 36.308 64.494z" fill="#9bb9c3"/><path d="m457.155 153.833v103.17c0 64.8-31.6 122.21-80.23 157.67l-17.82-98.64c-4.61-25.25-17.81-47.03-36.21-62.5-18.4-15.48-41.99-24.64-67.39-24.64-50.81 0-94.38 36.65-103.6 87.15l-17.8 97.89c-48.06-35.51-79.23-92.58-79.23-156.93v-103.17z" fill="#b4d2d7"/><ellipse cx="254.468" cy="340.45" fill="#3c6a73" rx="73.686" ry="74.476"/><path d="m315.355 382.403c-13.26 19.63-35.59 32.52-60.89 32.52-40.69 0-73.68-33.34-73.68-74.47 0-25.85 13.03-48.62 32.8-61.98-8.07 11.95-12.8 26.41-12.8 41.98 0 41.13 32.99 74.47 73.68 74.47 15.13 0 29.19-4.609 40.89-12.52z" fill="#2f535a"/><path d="m94.875 153.833h-40v35.05 68.12c0 64.35 31.17 121.42 79.23 156.93l5.86-32.21c-28.15-33.8-45.09-77.28-45.09-124.72v-58.32c0-2.209 1.791-4 4-4h328.05c10.6 0 20.82-2.04 30.23-5.8v-35.05z" fill="#9bb9c3"/><ellipse cx="254.468" cy="340.45" fill="#e6f7fe" rx="29.913" ry="30.234"/><path d="m281.335 353.744c-4.86 10.03-15.07 16.94-26.87 16.94-16.52 0-29.91-13.54-29.91-30.23 0-12.05 6.97-22.45 17.05-27.31-1.95 4.01-3.05 8.53-3.05 13.31 0 16.69 13.39 30.23 29.91 30.23 4.61-.001 8.97-1.05 12.87-2.94z" fill="#d3effd"/><path d="m85.102 174.684c-26.754 0-50.479-17.375-58.811-43.071l-17.734-44.264c-4.372-13.483 5.566-27.345 19.603-27.345h455.71c14.037 0 23.976 13.863 19.604 27.345l-17.734 44.265c-8.332 25.696-32.057 43.071-58.811 43.071h-341.827z" fill="#b4d2d7"/><path d="m503.475 87.354-1.33 3.31h-492.26l-1.33-3.31c-4.37-13.49 5.57-27.35 19.61-27.35h455.7c14.04 0 23.98 13.86 19.61 27.35z" fill="#9bb9c3"/><path d="m105.105 174.683h-20c-26.76 0-50.48-17.37-58.81-43.07l-16.41-40.95-1.33-3.31c-4.37-13.49 5.57-27.35 19.61-27.35h20c-14.04 0-23.98 13.86-19.61 27.35l1.33 3.31 16.41 40.95c8.33 25.701 32.05 43.07 58.81 43.07z" fill="#9bb9c3"/><g><path d="m426.515 155.004c-12.407 0-22.5-10.094-22.5-22.5s10.093-22.5 22.5-22.5 22.5 10.094 22.5 22.5-10.093 22.5-22.5 22.5z" fill="#dc4955"/></g><g><path d="m366.515 155.004c-12.407 0-22.5-10.094-22.5-22.5s10.093-22.5 22.5-22.5 22.5 10.094 22.5 22.5-10.093 22.5-22.5 22.5z" fill="#ffd064"/></g><g><path d="m441.515 140.004c-12.41 0-22.5-10.09-22.5-22.5 0-2.27.34-4.46.97-6.53-9.24 2.8-15.97 11.39-15.97 21.53 0 12.41 10.09 22.5 22.5 22.5 10.14 0 18.73-6.73 21.53-15.97-2.07.629-4.26.97-6.53.97z" fill="#d82f3c"/></g><g><path d="m381.515 140.004c-12.41 0-22.5-10.09-22.5-22.5 0-2.27.34-4.46.97-6.53-9.24 2.8-15.97 11.39-15.97 21.53 0 12.41 10.09 22.5 22.5 22.5 10.14 0 18.73-6.73 21.53-15.97-2.07.629-4.26.97-6.53.97z" fill="#ffc250"/></g></g><g><path d="m223.772 264.996c-30.418 12.628-50.072 42.245-50.072 75.455 0 44.969 36.232 81.553 80.768 81.553s80.768-36.584 80.768-81.553c0-20.465-7.539-40.036-21.229-55.108-13.621-14.997-32.135-24.269-52.132-26.106-4.134-.381-7.776 2.658-8.155 6.782-.379 4.125 2.658 7.776 6.782 8.155 34.054 3.13 59.734 31.623 59.734 66.277 0 36.697-29.503 66.553-65.768 66.553s-65.768-29.856-65.768-66.553c0-27.126 16.024-51.307 40.823-61.602 3.826-1.588 5.64-5.977 4.051-9.803-1.587-3.825-5.975-5.64-9.802-4.05z"/><path d="m217.055 340.451c0 20.807 16.783 37.733 37.413 37.733s37.414-16.927 37.414-37.733-16.784-37.734-37.414-37.734-37.413 16.927-37.413 37.734zm37.413-22.735c12.359 0 22.414 10.198 22.414 22.734 0 12.535-10.055 22.733-22.414 22.733-12.358 0-22.413-10.198-22.413-22.733s10.054-22.734 22.413-22.734z"/><path d="m506.56 64.097c-5.356-7.368-13.626-11.594-22.69-11.594h-455.709c-9.064 0-17.334 4.226-22.69 11.594-5.422 7.459-6.898 16.776-4.048 25.564-.344-.739 17.365 43.35 17.815 44.512 5.105 15.55 15.199 28.323 28.137 36.779v86.051c0 44.201 13.987 86.199 40.45 121.453 25.588 34.088 62.005 59.715 102.543 72.16 3.853 1.214 8.166-.973 9.371-4.969 1.215-3.96-1.009-8.155-4.969-9.371-19.167-5.884-36.805-14.571-52.541-25.525l17.053-93.359c8.573-46.933 49.04-80.996 96.222-80.996 47.177 0 87.644 34.06 96.22 80.987l17.157 93.88c-30.47 21.06-67.354 33.239-106.724 33.239-11.105.053-23.695.117-34.624-1.316-4.108-.502-7.844 2.449-8.332 6.563s2.45 7.844 6.563 8.332c11.544 1.508 24.67 1.489 36.392 1.422 98.058 0 181.861-69.927 199.267-166.271.736-4.076-1.971-7.978-6.047-8.714-4.078-.736-7.978 1.972-8.714 6.048-8.069 44.663-31.554 83.193-64.391 110.535l-15.792-86.414c-9.879-54.056-56.551-93.29-110.976-93.29-54.429 0-101.102 39.238-110.977 93.301l-15.677 85.823c-41.376-34.749-66.475-86.568-66.475-143.517v-78.671c7.166 2.5 14.821 3.851 22.729 3.851h341.825c7.907 0 15.562-1.352 22.728-3.851v78.671c0 4.143 3.358 7.5 7.5 7.5s7.5-3.357 7.5-7.5v-86.051c12.938-8.455 23.032-21.229 28.137-36.779.6-1.542 17.935-44.682 17.815-44.512 2.85-8.788 1.374-18.106-4.048-25.565zm-27.955 65.202c-4.328 13.346-13.313 24.108-24.779 30.704-8.036 4.609-17.205 7.179-26.898 7.181h-341.826c-9.411 0-18.373-2.435-26.215-6.797-11.974-6.635-21.247-17.791-25.634-31.564l-12.284-30.66h55.046c4.142 0 7.5-3.357 7.5-7.5s-3.358-7.5-7.5-7.5h-60.786c-.636-3.591.188-7.239 2.374-10.245 2.501-3.44 6.349-5.414 10.558-5.414h455.709c4.208 0 8.056 1.974 10.558 5.414 2.186 3.007 3.01 6.654 2.374 10.245h-385.787c-4.142 0-7.5 3.357-7.5 7.5s3.358 7.5 7.5 7.5h380.046c-.237.637-12.255 30.503-12.456 31.136z"/><path d="m426.515 110.004c-12.407 0-22.5 10.094-22.5 22.5s10.093 22.5 22.5 22.5 22.5-10.094 22.5-22.5-10.093-22.5-22.5-22.5zm0 30c-4.136 0-7.5-3.364-7.5-7.5s3.364-7.5 7.5-7.5 7.5 3.364 7.5 7.5-3.364 7.5-7.5 7.5z"/><path d="m366.515 110.004c-12.407 0-22.5 10.094-22.5 22.5s10.093 22.5 22.5 22.5 22.5-10.094 22.5-22.5-10.093-22.5-22.5-22.5zm0 30c-4.136 0-7.5-3.364-7.5-7.5s3.364-7.5 7.5-7.5 7.5 3.364 7.5 7.5-3.364 7.5-7.5 7.5z"/></g></g></svg>